<svg xmlns="http://www.w3.org/2000/svg" width="672" height="378" viewBox="0 0 672 378">
  <defs>
    <linearGradient id="bgGrad" x1="0%" y1="0%" x2="100%" y2="100%">
      <stop offset="0%" style="stop-color:#fce7f3"/>
      <stop offset="100%" style="stop-color:#fbcfe8"/>
    </linearGradient>
  </defs>
  
  <!-- Background -->
  <rect width="672" height="378" fill="url(#bgGrad)"/>
  
  <!-- Divisor Central -->
  <line x1="336" y1="40" x2="336" y2="338" stroke="#ec4899" stroke-width="3" stroke-dasharray="8,8"/>
  
  <!-- Lado ANTES -->
  <rect x="30" y="60" width="260" height="260" rx="20" fill="#ffffff" stroke="#e5e7eb" stroke-width="2"/>
  <text x="160" y="50" font-family="Arial" font-size="14" font-weight="bold" fill="#6b7280" text-anchor="middle">ANTES</text>
  
  <!-- Cabelo cacheado (linhas onduladas) -->
  <path d="M80 140 Q100 120 120 140 T160 140 T200 140 T240 140" fill="none" stroke="#78350f" stroke-width="8" stroke-linecap="round"/>
  <path d="M80 170 Q100 150 120 170 T160 170 T200 170 T240 170" fill="none" stroke="#78350f" stroke-width="8" stroke-linecap="round"/>
  <path d="M80 200 Q100 180 120 200 T160 200 T200 200 T240 200" fill="none" stroke="#78350f" stroke-width="8" stroke-linecap="round"/>
  <path d="M80 230 Q100 210 120 230 T160 230 T200 230 T240 230" fill="none" stroke="#78350f" stroke-width="8" stroke-linecap="round"/>
  <path d="M80 260 Q100 240 120 260 T160 260 T200 260 T240 260" fill="none" stroke="#78350f" stroke-width="8" stroke-linecap="round"/>
  
  <!-- Emoji triste -->
  <circle cx="160" cy="290" r="15" fill="#fef3c7" stroke="#f59e0b" stroke-width="2"/>
  <circle cx="154" cy="286" r="2" fill="#78350f"/>
  <circle cx="166" cy="286" r="2" fill="#78350f"/>
  <path d="M153 296 Q160 292 167 296" fill="none" stroke="#78350f" stroke-width="2" stroke-linecap="round"/>
  
  <!-- Lado DEPOIS -->
  <rect x="382" y="60" width="260" height="260" rx="20" fill="#ffffff" stroke="#16a34a" stroke-width="3"/>
  <text x="512" y="50" font-family="Arial" font-size="14" font-weight="bold" fill="#16a34a" text-anchor="middle">DEPOIS</text>
  
  <!-- Cabelo liso (linhas retas) -->
  <line x1="432" y1="140" x2="592" y2="140" stroke="#78350f" stroke-width="8" stroke-linecap="round"/>
  <line x1="432" y1="170" x2="592" y2="170" stroke="#78350f" stroke-width="8" stroke-linecap="round"/>
  <line x1="432" y1="200" x2="592" y2="200" stroke="#78350f" stroke-width="8" stroke-linecap="round"/>
  <line x1="432" y1="230" x2="592" y2="230" stroke="#78350f" stroke-width="8" stroke-linecap="round"/>
  <line x1="432" y1="260" x2="592" y2="260" stroke="#78350f" stroke-width="8" stroke-linecap="round"/>
  
  <!-- Brilhos -->
  <path d="M440 125 L445 135 L455 135 L447 142 L450 152 L440 146 L430 152 L433 142 L425 135 L435 135 Z" fill="#fbbf24"/>
  <path d="M580 155 L583 162 L590 162 L585 167 L587 174 L580 170 L573 174 L575 167 L570 162 L577 162 Z" fill="#fbbf24"/>
  <path d="M560 235 L563 242 L570 242 L565 247 L567 254 L560 250 L553 254 L555 247 L550 242 L557 242 Z" fill="#fbbf24"/>
  
  <!-- Emoji feliz -->
  <circle cx="512" cy="290" r="15" fill="#fef3c7" stroke="#16a34a" stroke-width="2"/>
  <circle cx="506" cy="286" r="2" fill="#78350f"/>
  <circle cx="518" cy="286" r="2" fill="#78350f"/>
  <path d="M505 294 Q512 300 519 294" fill="none" stroke="#78350f" stroke-width="2" stroke-linecap="round"/>
  
  <!-- Badge 15 MIN -->
  <rect x="266" y="160" width="140" height="58" rx="29" fill="#16a34a"/>
  <text x="336" y="185" font-family="Arial" font-size="20" font-weight="bold" fill="white" text-anchor="middle">15 MIN</text>
  <text x="336" y="205" font-family="Arial" font-size="10" fill="#bbf7d0" text-anchor="middle">SEM FORMOL</text>
  
  <!-- Texto rodapé -->
  <text x="336" y="360" font-family="Arial" font-size="11" fill="#9ca3af" text-anchor="middle">Imagem ilustrativa - Resultados podem variar</text>
</svg>
